<svg version="1.1" xmlns="http://www.w3.org/2000/svg" xmlns:xlink="http://www.w3.org/1999/xlink" x="0px" y="0px" viewBox="0 0 1000 1000" enable-background="new 0 0 1000 1000" xml:space="preserve">
  <g><path d="M727.1,558.4c126.3-126.3,126.3-327.9,0-454.2C664.9,42,582,10,500.9,10c-82.9,0-165.8,30.1-228,94.2c-126.3,126.3-126.3,327.9,0,454.2c58.4,58.4,131.9,88.6,207.3,92.3v150.8H329.5v37.7h150.8V990h37.7V839.2h150.8v-37.7H517.9V650.7C593.3,647,668.7,614.9,727.1,558.4L727.1,558.4z M299.3,130.6C352,76,423.7,47.7,499,47.7s147,30.1,199.8,82.9c111.2,111.2,111.2,290.2,0,401.4c-52.8,52.8-124.4,81-199.8,81s-147-30.1-199.8-82.9C188.1,420.8,188.1,239.9,299.3,130.6L299.3,130.6z"></path></g></svg>
