<svg version="1.1" xmlns="http://www.w3.org/2000/svg" xmlns:xlink="http://www.w3.org/1999/xlink" x="0px" y="0px" viewBox="0 0 1000 1000" enable-background="new 0 0 1000 1000" xml:space="preserve">
<metadata> Svg Vector Icons : http://www.onlinewebfonts.com/icon </metadata>
  <g><g transform="translate(0.000000,511.000000) scale(0.100000,-0.100000)"><path d="M6213,4779.6v-230.4h1442.3h1445L7511.6,2960.5L5922.9,1371.8l-165.4,130.1c-333.5,271.1-821.5,515.1-1255.2,631.7c-658.8,176.2-1482.9,135.5-2106.5-105.7C1243.7,1583.3,406,591,148.4-628.9c-65-317.2-65-984.1,2.7-1295.9c306.3-1428.7,1388-2510.4,2814-2814c314.5-67.8,981.4-67.8,1295.9-2.7c1201,257.5,2206.8,1095.3,2632.4,2201.3c271.1,699.4,317.2,1466.7,127.4,2155.3c-119.3,441.9-357.9,919-629,1252.5l-130.1,165.4l1588.7,1588.7l1588.6,1588.7v-1445V1323h230.4H9900v1843.5V5010H8056.5H6213V4779.6z M4404.7,1694.4c661.5-173.5,1263.4-577.5,1670-1116.9c197.9-263,422.9-729.3,507-1057.3c86.8-333.4,116.6-891.9,67.8-1233.5C6454.3-3039,5505.4-4031.2,4179.7-4291.5c-268.4-54.2-916.3-46.1-1192.8,13.6c-943.4,203.3-1691.7,772.6-2101,1602.2c-344.3,699.4-422.9,1450.4-230.4,2204C945.5,666.9,1872.7,1520.9,3054.7,1743.2C3399,1805.6,4065.9,1781.2,4404.7,1694.4z"></path></g></g></svg>
